<svg width="17" height="29" viewBox="0 0 17 29" fill="none" xmlns="http://www.w3.org/2000/svg">
<path d="M14.5165 14.553L14.8765 14.1974L14.5165 13.8417L1.53712 1.0175C1.41601 0.897837 1.41601 0.711882 1.53712 0.592222C1.66157 0.469259 1.8602 0.46926 1.98465 0.592221L15.5422 13.9877C15.6567 14.1008 15.6568 14.2901 15.5396 14.4037L15.5396 14.4037L15.5362 14.407L1.97863 27.8025L1.97857 27.8024L1.97199 27.8092C1.91752 27.8651 1.83976 27.8962 1.75788 27.8962C1.68449 27.8962 1.6 27.8646 1.53712 27.8025C1.41601 27.6828 1.41601 27.4969 1.53712 27.3772L14.5165 14.553Z" fill="white" stroke="black"/>
</svg>
